# xmcd CD database file
#
# Track frame offsets:
#	150
#	8482
#	20717
#	31282
#	40355
#	52390
#	67500
#	83575
#	94387
#	105297
#	118330
#	127500
#	140805
#	149077
#	157842
#
# Disc length: 2350 seconds
#
# Revision: 0
# Processed by: cddbd v1.5.1PL0 Copyright (c) Steve Scherf et al.
# Submitted via: CDex 1.51
#
DISCID=c4092c0f
DTITLE=Steve Waring and Roger Mason - guitar picking
DYEAR=1994
DGENRE=Country
TTITLE0=Old country Rock
TTITLE1=Judy
TTITLE2=Annegramme
TTITLE3=Roger's marriage rag
TTITLE4=La sainte vierge
TTITLE5=Angie
TTITLE6=Thing in D
TTITLE7=Eat what you kill
TTITLE8=La marsa
TTITLE9=Francoise
TTITLE10=Carolina R+R
TTITLE11=Small Parade
TTITLE12=Pooh Bear Stomp
TTITLE13=Sunflower
TTITLE14=Thanks Mister Joplin
EXTD=YEAR: 1994
EXTT0=
EXTT1=
EXTT2=
EXTT3=
EXTT4=
EXTT5=
EXTT6=
EXTT7=
EXTT8=
EXTT9=
EXTT10=
EXTT11=
EXTT12=
EXTT13=
EXTT14=
PLAYORDER=
